<svg xmlns="http://www.w3.org/2000/svg" viewBox="0 0 24 24"><title>52.Message</title><g id="_52.Message" data-name="52.Message"><path d="M10.3,23H8V19H0V1H13V3H2V17h8v3.755c.872-.706,2-1.865,2-2.755V17H22V12h2v7H13.838c-.642,2.019-2.98,3.63-3.283,3.832Z"/><path d="M10.487,15.8,8.2,13.512l.977-2.931,9.36-9.359,4.242,4.243-9.359,9.359Zm0-2.829.541.54,1.311-.437L19.95,5.465,18.536,4.05l-7.612,7.611Z"/><rect x="16.121" y="4.879" width="2" height="4" transform="translate(0.151 14.123) rotate(-45.005)"/></g></svg>